<svg xmlns="http://www.w3.org/2000/svg" viewBox="0 0 512 256" clip-path="url(#clip)" width="2048" height="1024"><defs><clipPath id="clip" clipPathUnits="objectBoundingBox"><rect x="0" y="0" width="512" height="256"/></clipPath></defs><rect x="0" y="0" width="512" height="256" fill="rgb(36, 36, 36)"/><path d="M190,8L514,8L514,270L190,270Z" fill="rgb(22, 21, 21)" fill-opacity="0.38"/><path d="M-6,2L153,2L153,118L-6,118Z" fill="rgb(47, 52, 56)" fill-opacity="0.50"/><path d="M92,5L262,5L262,272L92,272Z" fill="rgb(32, 32, 32)" fill-opacity="0.66"/><path d="M43,43L210,43L210,236L43,236Z" fill="rgb(36, 37, 37)" fill-opacity="0.65"/><path d="M-47,205L151,205L151,222L-47,222Z" fill="rgb(95, 99, 101)" fill-opacity="0.20"/><path d="M-1,2L45,2L45,119L-1,119Z" fill="rgb(67, 69, 73)" fill-opacity="0.48"/><path d="M-9,205L66,205L66,254L-9,254Z" fill="rgb(107, 101, 99)" fill-opacity="0.16"/><path d="M92,34L135,34L135,234L92,234Z" fill="rgb(31, 31, 31)" fill-opacity="0.83"/><path d="M10,42L91,42L91,98L10,98Z" fill="rgb(37, 34, 34)" fill-opacity="0.45"/><path d="M143,49L364,49L364,47L143,47Z" fill="rgb(171, 126, 113)" fill-opacity="0.35"/><path d="M19,10L92,10L92,37L19,37Z" fill="rgb(101, 173, 230)" fill-opacity="0.14"/><path d="M118,185L152,185L152,213L118,213Z" fill="rgb(34, 39, 40)" fill-opacity="0.78"/><path d="M136,167L259,167L259,193L136,193Z" fill="rgb(29, 29, 29)" fill-opacity="0.79"/><path d="M143,128L153,128L153,140L143,140Z" fill="rgb(69, 108, 135)" fill-opacity="0.56"/><path d="M145,81L253,81L253,89L145,89Z" fill="rgb(172, 111, 100)" fill-opacity="0.20"/><path d="M135,193L210,193L210,195L135,195Z" fill="rgb(64, 205, 175)" fill-opacity="0.26"/><path d="M-11,62L13,62L13,264L-11,264Z" fill="rgb(51, 51, 51)" fill-opacity="1.00"/><path d="M4,29L10,29L10,62L4,62Z" fill="rgb(132, 155, 168)" fill-opacity="0.40"/><path d="M173,115L270,115L270,157L173,157Z" fill="rgb(29, 29, 29)" fill-opacity="0.69"/><path d="M174,201L250,201L250,272L174,272Z" fill="rgb(28, 28, 28)" fill-opacity="0.59"/><path d="M145,163L195,163L195,165L145,165Z" fill="rgb(125, 178, 198)" fill-opacity="0.41"/><path d="M478,1L491,1L491,50L478,50Z" fill="rgb(53, 55, 56)" fill-opacity="0.52"/><path d="M171,50L487,50L487,80L171,80Z" fill="rgb(29, 29, 29)" fill-opacity="0.67"/><path d="M145,112L260,112L260,114L145,114Z" fill="rgb(189, 200, 209)" fill-opacity="0.23"/><path d="M225,49L354,49L354,257L225,257Z" fill="rgb(30, 30, 30)" fill-opacity="0.32"/><path d="M13,38L21,38L21,143L13,143Z" fill="rgb(36, 36, 37)" fill-opacity="0.75"/><path d="M129,196L210,196L210,194L129,194Z" fill="rgb(52, 117, 106)" fill-opacity="0.45"/><path d="M162,44L154,44L154,250L162,250Z" fill="rgb(32, 32, 33)" fill-opacity="0.59"/><path d="M92,192L251,192L251,194L92,194Z" fill="rgb(30, 29, 29)" fill-opacity="0.39"/><path d="M32,26L136,26L136,30L32,30Z" fill="rgb(37, 38, 41)" fill-opacity="1.00"/><path d="M489,2L502,2L502,5L489,5Z" fill="rgb(250, 250, 253)" fill-opacity="0.21"/><path d="M484,15L496,15L496,53L484,53Z" fill="rgb(33, 31, 30)" fill-opacity="0.71"/><path d="M101,6L125,6L125,3L101,3Z" fill="rgb(240, 249, 255)" fill-opacity="0.37"/><path d="M6,32L92,32L92,36L6,36Z" fill="rgb(0, 109, 182)" fill-opacity="0.49"/><path d="M41,221L68,221L68,231L41,231Z" fill="rgb(15, 14, 17)" fill-opacity="0.29"/><path d="M22,231L73,231L73,233L22,233Z" fill="rgb(140, 134, 130)" fill-opacity="0.48"/><path d="M103,201L382,201L382,213L103,213Z" fill="rgb(30, 29, 29)" fill-opacity="0.73"/><path d="M266,42L279,42L279,138L266,138Z" fill="rgb(30, 30, 30)" fill-opacity="0.52"/><path d="M139,89L292,89L292,102L139,102Z" fill="rgb(29, 29, 29)" fill-opacity="0.80"/><path d="M138,49L453,49L453,61L138,61Z" fill="rgb(30, 30, 30)" fill-opacity="1.00"/><path d="M13,5L282,5L282,8L13,8Z" fill="rgb(36, 36, 36)" fill-opacity="0.94"/><path d="M39,237L331,237L331,254L39,254Z" fill="rgb(30, 30, 30)" fill-opacity="0.47"/><path d="M311,34L320,34L320,253L311,253Z" fill="rgb(30, 30, 30)" fill-opacity="0.70"/><path d="M-33,158L200,158L200,160L-33,160Z" fill="rgb(57, 58, 63)" fill-opacity="0.47"/><path d="M13,118L92,118L92,205L13,205Z" fill="rgb(37, 37, 38)" fill-opacity="0.83"/><path d="M41,48L119,48L119,160L41,160Z" fill="rgb(36, 35, 36)" fill-opacity="0.35"/><path d="M171,14L265,14L265,46L171,46Z" fill="rgb(29, 29, 29)" fill-opacity="0.66"/><path d="M138,140L225,140L225,152L138,152Z" fill="rgb(29, 29, 29)" fill-opacity="0.80"/><path d="M92,104L144,104L144,186L92,186Z" fill="rgb(30, 31, 31)" fill-opacity="0.51"/><path d="M260,50L498,50L498,234L260,234Z" fill="rgb(30, 30, 30)" fill-opacity="1.00"/><path d="M225,8L228,8L228,260L225,260Z" fill="rgb(30, 30, 30)" fill-opacity="0.73"/><path d="M148,221L253,221L253,264L148,264Z" fill="rgb(29, 29, 29)" fill-opacity="0.76"/><path d="M162,82L249,82L249,83L162,83Z" fill="rgb(166, 77, 70)" fill-opacity="0.36"/><path d="M16,10L54,10L54,24L16,24Z" fill="rgb(121, 99, 87)" fill-opacity="0.35"/><path d="M143,133L180,133L180,135L143,135Z" fill="rgb(148, 177, 201)" fill-opacity="0.35"/><path d="M27,81L39,81L39,118L27,118Z" fill="rgb(80, 78, 75)" fill-opacity="0.51"/><path d="M29,53L104,53L104,68L29,68Z" fill="rgb(36, 36, 37)" fill-opacity="0.78"/><path d="M127,188L149,188L149,236L127,236Z" fill="rgb(66, 122, 128)" fill-opacity="0.10"/><path d="M19,215L89,215L89,214L19,214Z" fill="rgb(167, 160, 151)" fill-opacity="0.60"/><path d="M39,14L189,14L189,10L39,10Z" fill="rgb(51, 49, 47)" fill-opacity="0.70"/><path d="M143,107L171,107L171,109L143,109Z" fill="rgb(125, 182, 228)" fill-opacity="0.33"/><path d="M157,104L162,104L162,137L157,137Z" fill="rgb(32, 31, 31)" fill-opacity="0.80"/><path d="M118,26L119,26L119,177L118,177Z" fill="rgb(93, 96, 97)" fill-opacity="0.43"/><path d="M119,151L143,151L143,167L119,167Z" fill="rgb(28, 27, 27)" fill-opacity="0.58"/><path d="M103,183L99,183L99,230L103,230Z" fill="rgb(51, 51, 51)" fill-opacity="0.47"/><path d="M105,130L399,130L399,133L105,133Z" fill="rgb(30, 30, 30)" fill-opacity="0.92"/><path d="M9,30L300,30L300,31L9,31Z" fill="rgb(31, 29, 28)" fill-opacity="0.69"/><path d="M106,201L424,201L424,213L106,213Z" fill="rgb(30, 30, 30)" fill-opacity="0.75"/><path d="M194,13L197,13L197,143L194,143Z" fill="rgb(30, 29, 30)" fill-opacity="0.70"/><path d="M143,13L138,13L138,144L143,144Z" fill="rgb(29, 28, 28)" fill-opacity="0.66"/><path d="M92,5L118,5L118,122L92,122Z" fill="rgb(30, 30, 30)" fill-opacity="0.76"/><path d="M122,26L171,26L171,13L122,13Z" fill="rgb(27, 27, 27)" fill-opacity="0.65"/><path d="M41,127L104,127L104,150L41,150Z" fill="rgb(37, 38, 37)" fill-opacity="0.52"/><path d="M145,113L154,113L154,115L145,115Z" fill="rgb(75, 149, 210)" fill-opacity="0.45"/><path d="M92,135L487,135L487,138L92,138Z" fill="rgb(30, 30, 30)" fill-opacity="0.86"/><path d="M20,95L264,95L264,97L20,97Z" fill="rgb(31, 31, 31)" fill-opacity="0.63"/><path d="M172,14L357,14L357,46L172,46Z" fill="rgb(30, 30, 30)" fill-opacity="1.00"/><path d="M165,6L166,6L166,235L165,235Z" fill="rgb(30, 29, 30)" fill-opacity="0.86"/><path d="M31,44L21,44L21,115L31,115Z" fill="rgb(51, 54, 59)" fill-opacity="0.43"/><path d="M103,195L135,195L135,223L103,223Z" fill="rgb(31, 31, 32)" fill-opacity="0.78"/><path d="M26,34L43,34L43,36L26,36Z" fill="rgb(169, 253, 255)" fill-opacity="0.42"/><path d="M214,124L275,124L275,272L214,272Z" fill="rgb(30, 30, 30)" fill-opacity="1.00"/><path d="M143,114L329,114L329,126L143,126Z" fill="rgb(30, 30, 30)" fill-opacity="0.73"/><path d="M15,97L482,97L482,98L15,98Z" fill="rgb(31, 31, 31)" fill-opacity="0.57"/><path d="M198,181L460,181L460,195L198,195Z" fill="rgb(30, 30, 30)" fill-opacity="0.36"/><path d="M20,100L172,100L172,104L20,104Z" fill="rgb(38, 37, 38)" fill-opacity="0.79"/><path d="M92,25L336,25L336,20L92,20Z" fill="rgb(30, 30, 30)" fill-opacity="0.82"/><path d="M96,83L484,83L484,87L96,87Z" fill="rgb(31, 30, 29)" fill-opacity="0.32"/><path d="M92,221L341,221L341,233L92,233Z" fill="rgb(30, 30, 30)" fill-opacity="0.64"/><path d="M143,62L173,62L173,69L143,69Z" fill="rgb(181, 178, 209)" fill-opacity="0.15"/><path d="M148,221L368,221L368,266L148,266Z" fill="rgb(30, 30, 30)" fill-opacity="1.00"/><path d="M152,64L398,64L398,82L152,82Z" fill="rgb(30, 29, 29)" fill-opacity="0.44"/><path d="M51,37L92,37L92,150L51,150Z" fill="rgb(36, 37, 38)" fill-opacity="0.89"/><path d="M93,9L476,9L476,8L93,8Z" fill="rgb(13, 13, 13)" fill-opacity="0.51"/><path d="M183,11L181,11L181,13L183,13Z" fill="rgb(180, 110, 63)" fill-opacity="0.66"/><path d="M16,83L168,83L168,86L16,86Z" fill="rgb(33, 34, 35)" fill-opacity="0.71"/><path d="M16,245L265,245L265,261L16,261Z" fill="rgb(31, 31, 32)" fill-opacity="0.43"/><path d="M119,85L253,85L253,86L119,86Z" fill="rgb(28, 28, 28)" fill-opacity="0.87"/><path d="M135,199L204,199L204,201L135,201Z" fill="rgb(137, 106, 100)" fill-opacity="0.36"/><path d="M100,31L104,31L104,94L100,94Z" fill="rgb(52, 52, 52)" fill-opacity="0.44"/><path d="M175,49L313,49L313,81L175,81Z" fill="rgb(30, 30, 30)" fill-opacity="1.00"/><path d="M127,31L141,31L141,33L127,33Z" fill="rgb(133, 185, 187)" fill-opacity="0.47"/><path d="M18,118L48,118L48,116L18,116Z" fill="rgb(146, 154, 154)" fill-opacity="0.53"/><path d="M196,121L477,121L477,158L196,158Z" fill="rgb(30, 30, 30)" fill-opacity="0.95"/><path d="M143,26L172,26L172,41L143,41Z" fill="rgb(29, 29, 29)" fill-opacity="0.75"/><path d="M92,206L235,206L235,208L92,208Z" fill="rgb(30, 30, 30)" fill-opacity="0.92"/><path d="M49,44L92,44L92,161L49,161Z" fill="rgb(38, 37, 38)" fill-opacity="0.49"/><path d="M26,211L111,211L111,213L26,213Z" fill="rgb(29, 29, 30)" fill-opacity="0.69"/><path d="M135,70L136,70L136,151L135,151Z" fill="rgb(74, 88, 118)" fill-opacity="0.35"/><path d="M124,-5L476,-5L476,8L124,8Z" fill="rgb(38, 38, 40)" fill-opacity="0.47"/><path d="M119,109L225,109L225,112L119,112Z" fill="rgb(29, 29, 29)" fill-opacity="0.75"/><path d="M184,89L403,89L403,109L184,109Z" fill="rgb(30, 30, 30)" fill-opacity="1.00"/><path d="M253,50L462,50L462,98L253,98Z" fill="rgb(30, 30, 30)" fill-opacity="1.00"/><path d="M99,111L103,111L103,250L99,250Z" fill="rgb(47, 47, 46)" fill-opacity="0.46"/><path d="M13,245L92,245L92,278L13,278Z" fill="rgb(37, 37, 38)" fill-opacity="1.00"/><path d="M4,12L42,12L42,22L4,22Z" fill="rgb(63, 64, 68)" fill-opacity="0.77"/><path d="M138,165L211,165L211,193L138,193Z" fill="rgb(29, 29, 29)" fill-opacity="0.66"/><path d="M129,214L171,214L171,216L129,216Z" fill="rgb(68, 242, 221)" fill-opacity="0.28"/><path d="M171,132L292,132L292,152L171,152Z" fill="rgb(31, 30, 30)" fill-opacity="0.32"/><path d="M103,9L118,9L118,223L103,223Z" fill="rgb(29, 29, 29)" fill-opacity="0.69"/><path d="M4,48L80,48L80,56L4,56Z" fill="rgb(39, 39, 40)" fill-opacity="0.69"/><path d="M93,196L233,196L233,198L93,198Z" fill="rgb(30, 30, 30)" fill-opacity="0.99"/><path d="M92,246L262,246L262,271L92,271Z" fill="rgb(29, 29, 28)" fill-opacity="0.45"/><path d="M118,178L120,178L120,242L118,242Z" fill="rgb(80, 81, 88)" fill-opacity="0.33"/><path d="M54,8L92,8L92,26L54,26Z" fill="rgb(65, 59, 59)" fill-opacity="0.63"/><path d="M290,26L291,26L291,153L290,153Z" fill="rgb(30, 30, 30)" fill-opacity="1.00"/><path d="M144,158L156,158L156,160L144,160Z" fill="rgb(85, 162, 238)" fill-opacity="0.49"/><path d="M169,87L168,87L168,160L169,160Z" fill="rgb(85, 97, 89)" fill-opacity="0.47"/><path d="M193,164L419,164L419,193L193,193Z" fill="rgb(30, 30, 30)" fill-opacity="0.88"/><path d="M53,31L91,31L91,38L53,38Z" fill="rgb(0, 55, 98)" fill-opacity="0.46"/><path d="M226,99L236,99L236,247L226,247Z" fill="rgb(30, 30, 30)" fill-opacity="0.75"/><path d="M-18,24L91,24L91,28L-18,28Z" fill="rgb(44, 40, 36)" fill-opacity="0.52"/><path d="M179,202L351,202L351,286L179,286Z" fill="rgb(30, 30, 30)" fill-opacity="1.00"/><path d="M120,6L127,6L127,178L120,178Z" fill="rgb(29, 29, 29)" fill-opacity="0.56"/><path d="M66,205L92,205L92,211L66,211Z" fill="rgb(64, 63, 62)" fill-opacity="0.49"/><path d="M29,225L41,225L41,227L29,227Z" fill="rgb(208, 202, 200)" fill-opacity="0.41"/><path d="M55,222L99,222L99,216L55,216Z" fill="rgb(27, 26, 26)" fill-opacity="0.52"/><path d="M253,24L522,24L522,29L253,29Z" fill="rgb(30, 30, 30)" fill-opacity="0.66"/><path d="M34,49L79,49L79,75L34,75Z" fill="rgb(36, 36, 37)" fill-opacity="0.73"/><path d="M69,125L197,125L197,127L69,127Z" fill="rgb(30, 30, 30)" fill-opacity="0.55"/><path d="M231,4L512,4L512,8L231,8Z" fill="rgb(37, 37, 38)" fill-opacity="0.36"/><path d="M198,82L200,82L200,87L198,87Z" fill="rgb(155, 133, 73)" fill-opacity="0.31"/><path d="M13,219L88,219L88,217L13,217Z" fill="rgb(36, 36, 37)" fill-opacity="0.75"/><path d="M188,9L264,9L264,14L188,14Z" fill="rgb(29, 29, 29)" fill-opacity="0.68"/><path d="M219,80L227,80L227,85L219,85Z" fill="rgb(29, 29, 33)" fill-opacity="0.48"/><path d="M92,7L99,7L99,217L92,217Z" fill="rgb(28, 28, 28)" fill-opacity="0.55"/><path d="M51,37L91,37L91,95L51,95Z" fill="rgb(37, 37, 38)" fill-opacity="1.00"/><path d="M143,115L392,115L392,126L143,126Z" fill="rgb(29, 29, 29)" fill-opacity="0.75"/><path d="M122,14L357,14L357,26L122,26Z" fill="rgb(30, 30, 30)" fill-opacity="1.00"/><path d="M492,-9L498,-9L498,37L492,37Z" fill="rgb(33, 33, 33)" fill-opacity="0.59"/><path d="M129,236L147,236L147,234L129,234Z" fill="rgb(119, 169, 179)" fill-opacity="0.53"/><path d="M138,165L413,165L413,193L138,193Z" fill="rgb(30, 30, 30)" fill-opacity="1.00"/><path d="M167,101L168,101L168,157L167,157Z" fill="rgb(39, 29, 29)" fill-opacity="0.46"/><path d="M238,85L253,85L253,81L238,81Z" fill="rgb(77, 60, 47)" fill-opacity="0.70"/><path d="M145,42L149,42L149,43L145,43Z" fill="rgb(145, 220, 255)" fill-opacity="0.70"/><path d="M35,106L48,106L48,116L35,116Z" fill="rgb(38, 37, 39)" fill-opacity="0.82"/><path d="M93,89L238,89L238,91L93,91Z" fill="rgb(32, 31, 30)" fill-opacity="0.75"/><path d="M121,190L138,190L138,188L121,188Z" fill="rgb(61, 75, 87)" fill-opacity="0.79"/><path d="M139,91L304,91L304,102L139,102Z" fill="rgb(30, 30, 30)" fill-opacity="0.99"/><path d="M119,227L353,227L353,234L119,234Z" fill="rgb(29, 29, 29)" fill-opacity="0.63"/><path d="M201,46L356,46L356,47L201,47Z" fill="rgb(58, 45, 40)" fill-opacity="0.46"/><path d="M147,221L452,221L452,258L147,258Z" fill="rgb(30, 30, 30)" fill-opacity="1.00"/><path d="M118,181L136,181L136,188L118,188Z" fill="rgb(29, 29, 29)" fill-opacity="0.92"/><path d="M42,118L92,118L92,127L42,127Z" fill="rgb(38, 39, 40)" fill-opacity="0.48"/><path d="M147,15L387,15L387,41L147,41Z" fill="rgb(30, 30, 30)" fill-opacity="1.00"/><path d="M48,118L92,118L92,127L48,127Z" fill="rgb(37, 36, 37)" fill-opacity="0.56"/><path d="M143,104L171,104L171,102L143,102Z" fill="rgb(236, 238, 253)" fill-opacity="0.18"/><path d="M27,40L51,40L51,48L27,48Z" fill="rgb(112, 108, 107)" fill-opacity="0.37"/><path d="M362,23L472,23L472,62L362,62Z" fill="rgb(30, 30, 30)" fill-opacity="0.37"/><path d="M127,75L374,75L374,76L127,76Z" fill="rgb(29, 29, 29)" fill-opacity="0.79"/><path d="M213,165L214,165L214,166L213,166Z" fill="rgb(220, 255, 255)" fill-opacity="0.61"/><path d="M145,87L237,87L237,89L145,89Z" fill="rgb(113, 95, 91)" fill-opacity="0.49"/><path d="M237,87L358,87L358,89L237,89Z" fill="rgb(29, 29, 29)" fill-opacity="0.92"/><path d="M261,53L389,53L389,203L261,203Z" fill="rgb(30, 30, 30)" fill-opacity="1.00"/><path d="M136,213L173,213L173,214L136,214Z" fill="rgb(35, 67, 66)" fill-opacity="0.71"/><path d="M157,61L164,61L164,215L157,215Z" fill="rgb(34, 32, 31)" fill-opacity="0.34"/><path d="M191,87L213,87L213,90L191,90Z" fill="rgb(46, 29, 25)" fill-opacity="0.47"/><path d="M111,244L114,244L114,246L111,246Z" fill="rgb(126, 101, 71)" fill-opacity="0.58"/><path d="M66,158L71,158L71,231L66,231Z" fill="rgb(38, 38, 40)" fill-opacity="0.56"/><path d="M135,118L132,118L132,255L135,255Z" fill="rgb(29, 27, 26)" fill-opacity="0.39"/><path d="M14,120L92,120L92,200L14,200Z" fill="rgb(37, 37, 38)" fill-opacity="1.00"/><path d="M127,227L128,227L128,223L127,223Z" fill="rgb(255, 255, 255)" fill-opacity="0.42"/><path d="M22,242L37,242L37,245L22,245Z" fill="rgb(132, 124, 116)" fill-opacity="0.57"/><path d="M8,42L426,42L426,44L8,44Z" fill="rgb(33, 33, 33)" fill-opacity="0.38"/><path d="M165,138L499,138L499,152L165,152Z" fill="rgb(30, 30, 30)" fill-opacity="0.91"/><path d="M13,158L-12,158L-12,160L13,160Z" fill="rgb(49, 49, 48)" fill-opacity="0.63"/><path d="M135,140L137,140L137,127L135,127Z" fill="rgb(21, 18, 13)" fill-opacity="0.52"/><path d="M171,42L383,42L383,46L171,46Z" fill="rgb(29, 29, 29)" fill-opacity="0.40"/><path d="M273,44L275,44L275,138L273,138Z" fill="rgb(29, 29, 30)" fill-opacity="0.75"/><path d="M130,114L131,114L131,258L130,258Z" fill="rgb(30, 29, 29)" fill-opacity="0.71"/><path d="M99,191L165,191L165,193L99,193Z" fill="rgb(29, 29, 29)" fill-opacity="0.80"/><path d="M402,57L484,57L484,93L402,93Z" fill="rgb(30, 30, 30)" fill-opacity="1.00"/><path d="M127,105L352,105L352,107L127,107Z" fill="rgb(29, 29, 29)" fill-opacity="0.84"/><path d="M476,3L484,3L484,20L476,20Z" fill="rgb(70, 88, 95)" fill-opacity="0.40"/><path d="M173,28L479,28L479,46L173,46Z" fill="rgb(30, 30, 30)" fill-opacity="0.82"/><path d="M261,96L421,96L421,136L261,136Z" fill="rgb(30, 30, 30)" fill-opacity="1.00"/><path d="M365,43L414,43L414,82L365,82Z" fill="rgb(30, 30, 30)" fill-opacity="1.00"/><path d="M225,88L269,88L269,107L225,107Z" fill="rgb(30, 30, 30)" fill-opacity="0.46"/><path d="M103,10L118,10L118,161L103,161Z" fill="rgb(30, 30, 30)" fill-opacity="0.97"/><path d="M156,218L178,218L178,222L156,222Z" fill="rgb(184, 101, 77)" fill-opacity="0.18"/><path d="M100,38L103,38L103,36L100,36Z" fill="rgb(63, 63, 63)" fill-opacity="0.67"/><path d="M171,24L454,24L454,46L171,46Z" fill="rgb(30, 30, 30)" fill-opacity="1.00"/><path d="M98,221L282,221L282,223L98,223Z" fill="rgb(30, 30, 30)" fill-opacity="0.80"/><path d="M158,160L192,160L192,158L158,158Z" fill="rgb(210, 159, 128)" fill-opacity="0.19"/><path d="M175,51L288,51L288,78L175,78Z" fill="rgb(30, 30, 30)" fill-opacity="1.00"/><path d="M139,69L170,69L170,82L139,82Z" fill="rgb(29, 29, 29)" fill-opacity="0.84"/><path d="M116,242L150,242L150,257L116,257Z" fill="rgb(29, 29, 29)" fill-opacity="0.43"/><path d="M216,47L212,47L212,49L216,49Z" fill="rgb(179, 95, 58)" fill-opacity="0.65"/><path d="M390,18L477,18L477,183L390,183Z" fill="rgb(30, 30, 30)" fill-opacity="1.00"/><path d="M119,100L141,100L141,122L119,122Z" fill="rgb(29, 28, 28)" fill-opacity="0.55"/><path d="M127,203L128,203L128,206L127,206Z" fill="rgb(136, 175, 206)" fill-opacity="0.70"/><path d="M51,38L92,38L92,125L51,125Z" fill="rgb(37, 37, 38)" fill-opacity="1.00"/><path d="M24,16L65,16L65,18L24,18Z" fill="rgb(129, 135, 153)" fill-opacity="0.50"/><path d="M241,80L248,80L248,146L241,146Z" fill="rgb(31, 29, 29)" fill-opacity="0.51"/><path d="M136,127L252,127L252,115L136,115Z" fill="rgb(30, 30, 30)" fill-opacity="0.95"/><path d="M450,50L486,50L486,188L450,188Z" fill="rgb(30, 30, 30)" fill-opacity="1.00"/><path d="M128,33L135,33L135,188L128,188Z" fill="rgb(29, 29, 29)" fill-opacity="0.67"/><path d="M260,61L388,61L388,245L260,245Z" fill="rgb(30, 30, 30)" fill-opacity="1.00"/><path d="M-9,32L6,32L6,41L-9,41Z" fill="rgb(47, 50, 52)" fill-opacity="0.85"/><path d="M119,64L392,64L392,67L119,67Z" fill="rgb(30, 30, 30)" fill-opacity="0.81"/><path d="M119,162L260,162L260,160L119,160Z" fill="rgb(30, 29, 29)" fill-opacity="0.67"/><path d="M225,114L360,114L360,167L225,167Z" fill="rgb(30, 30, 30)" fill-opacity="0.73"/><path d="M246,81L249,81L249,84L246,84Z" fill="rgb(93, 100, 90)" fill-opacity="0.48"/><path d="M92,28L397,28L397,31L92,31Z" fill="rgb(30, 30, 30)" fill-opacity="0.72"/><path d="M350,40L353,40L353,173L350,173Z" fill="rgb(29, 29, 29)" fill-opacity="0.55"/><path d="M358,45L361,45L361,95L358,95Z" fill="rgb(31, 29, 29)" fill-opacity="0.46"/><path d="M136,118L137,118L137,151L136,151Z" fill="rgb(46, 42, 38)" fill-opacity="0.52"/><path d="M119,33L135,33L135,172L119,172Z" fill="rgb(30, 30, 30)" fill-opacity="0.80"/><path d="M306,49L445,49L445,98L306,98Z" fill="rgb(30, 30, 30)" fill-opacity="1.00"/><path d="M243,46L244,46L244,172L243,172Z" fill="rgb(29, 29, 30)" fill-opacity="0.53"/><path d="M35,48L85,48L85,74L35,74Z" fill="rgb(37, 37, 38)" fill-opacity="1.00"/><path d="M143,156L199,156L199,157L143,157Z" fill="rgb(29, 29, 29)" fill-opacity="0.89"/><path d="M47,34L52,34L52,37L47,37Z" fill="rgb(117, 171, 211)" fill-opacity="0.57"/><path d="M19,89L169,89L169,92L19,92Z" fill="rgb(32, 32, 33)" fill-opacity="0.65"/><path d="M214,115L299,115L299,227L214,227Z" fill="rgb(30, 30, 30)" fill-opacity="1.00"/><path d="M102,10L103,10L103,236L102,236Z" fill="rgb(75, 75, 74)" fill-opacity="0.13"/><path d="M156,165L164,165L164,193L156,193Z" fill="rgb(29, 29, 30)" fill-opacity="0.48"/><path d="M13,31L26,31L26,37L13,37Z" fill="rgb(0, 66, 114)" fill-opacity="0.56"/><path d="M10,12L28,12L28,21L10,21Z" fill="rgb(49, 51, 56)" fill-opacity="0.41"/><path d="M230,114L396,114L396,185L230,185Z" fill="rgb(30, 30, 30)" fill-opacity="1.00"/><path d="M138,69L452,69L452,81L138,81Z" fill="rgb(30, 30, 30)" fill-opacity="1.00"/><path d="M13,60L20,60L20,101L13,101Z" fill="rgb(35, 35, 36)" fill-opacity="0.53"/><path d="M5,249L9,249L9,272L5,272Z" fill="rgb(155, 155, 155)" fill-opacity="0.55"/><path d="M148,187L151,187L151,214L148,214Z" fill="rgb(31, 30, 30)" fill-opacity="0.91"/><path d="M102,80L143,80L143,87L102,87Z" fill="rgb(30, 30, 29)" fill-opacity="0.46"/><path d="M202,89L205,89L205,163L202,163Z" fill="rgb(30, 29, 29)" fill-opacity="0.72"/><path d="M173,157L277,157L277,135L173,135Z" fill="rgb(30, 30, 30)" fill-opacity="1.00"/><path d="M110,9L111,9L111,244L110,244Z" fill="rgb(35, 35, 35)" fill-opacity="0.82"/><path d="M119,67L135,67L135,98L119,98Z" fill="rgb(29, 29, 30)" fill-opacity="0.38"/><path d="M246,78L248,78L248,218L246,218Z" fill="rgb(31, 30, 30)" fill-opacity="0.61"/><path d="M96,185L110,185L110,203L96,203Z" fill="rgb(30, 30, 30)" fill-opacity="0.40"/><path d="M20,104L23,104L23,118L20,118Z" fill="rgb(41, 44, 53)" fill-opacity="0.87"/><path d="M496,37L488,37L488,50L496,50Z" fill="rgb(27, 28, 29)" fill-opacity="0.55"/><path d="M48,71L87,71L87,202L48,202Z" fill="rgb(37, 37, 38)" fill-opacity="0.98"/><path d="M233,49L340,49L340,81L233,81Z" fill="rgb(30, 30, 30)" fill-opacity="1.00"/><path d="M21,94L60,94L60,92L21,92Z" fill="rgb(102, 96, 78)" fill-opacity="0.51"/><path d="M45,87L60,87L60,99L45,99Z" fill="rgb(37, 37, 38)" fill-opacity="1.00"/><path d="M13,112L43,112L43,115L13,115Z" fill="rgb(37, 37, 38)" fill-opacity="1.00"/><path d="M354,47L484,47L484,42L354,42Z" fill="rgb(30, 30, 30)" fill-opacity="0.61"/><path d="M209,81L211,81L211,85L209,85Z" fill="rgb(26, 117, 111)" fill-opacity="0.55"/><path d="M135,125L138,125L138,142L135,142Z" fill="rgb(29, 29, 29)" fill-opacity="0.91"/><path d="M253,49L378,49L378,98L253,98Z" fill="rgb(30, 30, 30)" fill-opacity="1.00"/><path d="M31,115L34,115L34,118L31,118Z" fill="rgb(40, 4, 0)" fill-opacity="0.42"/><path d="M126,154L173,154L173,155L126,155Z" fill="rgb(69, 70, 69)" fill-opacity="0.46"/><path d="M491,11L477,11L477,9L491,9Z" fill="rgb(91, 107, 103)" fill-opacity="0.47"/><path d="M7,36L92,36L92,37L7,37Z" fill="rgb(0, 79, 136)" fill-opacity="0.57"/><path d="M129,2L131,2L131,5L129,5Z" fill="rgb(148, 147, 145)" fill-opacity="0.54"/><path d="M198,26L199,26L199,114L198,114Z" fill="rgb(30, 29, 30)" fill-opacity="0.93"/><path d="M319,45L317,45L317,55L319,55Z" fill="rgb(29, 30, 30)" fill-opacity="0.76"/><path d="M350,46L351,46L351,173L350,173Z" fill="rgb(29, 29, 29)" fill-opacity="0.80"/><path d="M100,41L101,41L101,80L100,80Z" fill="rgb(64, 64, 64)" fill-opacity="0.36"/><path d="M335,50L484,50L484,223L335,223Z" fill="rgb(30, 30, 30)" fill-opacity="1.00"/><path d="M77,85L92,85L92,171L77,171Z" fill="rgb(37, 37, 38)" fill-opacity="1.00"/><path d="M134,80L140,80L140,91L134,91Z" fill="rgb(29, 29, 29)" fill-opacity="0.92"/><path d="M39,233L92,233L92,271L39,271Z" fill="rgb(37, 37, 38)" fill-opacity="0.91"/><path d="M135,221L151,221L151,220L135,220Z" fill="rgb(128, 202, 254)" fill-opacity="0.49"/><path d="M281,49L467,49L467,210L281,210Z" fill="rgb(30, 30, 30)" fill-opacity="1.00"/><path d="M166,22L358,22L358,41L166,41Z" fill="rgb(30, 30, 30)" fill-opacity="1.00"/><path d="M129,11L147,11L147,13L129,13Z" fill="rgb(140, 217, 234)" fill-opacity="0.42"/><path d="M180,137L182,137L182,208L180,208Z" fill="rgb(30, 32, 31)" fill-opacity="0.50"/><path d="M101,145L103,145L103,183L101,183Z" fill="rgb(30, 30, 30)" fill-opacity="0.45"/><path d="M36,42L52,42L52,57L36,57Z" fill="rgb(38, 34, 34)" fill-opacity="0.39"/><path d="M104,74L118,74L118,242L104,242Z" fill="rgb(30, 30, 30)" fill-opacity="0.40"/><path d="M311,45L314,45L314,50L311,50Z" fill="rgb(29, 29, 29)" fill-opacity="0.91"/><path d="M135,32L133,32L133,225L135,225Z" fill="rgb(30, 29, 29)" fill-opacity="0.60"/></svg>